<?xml version="1.0" encoding="utf-8"?>
<!-- Generator: Adobe Illustrator 27.5.0, SVG Export Plug-In . SVG Version: 6.00 Build 0)  -->
<svg version="1.1" id="Layer_1" xmlns="http://www.w3.org/2000/svg" xmlns:xlink="http://www.w3.org/1999/xlink" x="0px" y="0px"
	 viewBox="0 0 24 24" style="enable-background:new 0 0 24 24;" xml:space="preserve">
<style type="text/css">
	.st0{fill:none;stroke:#FFFFFF;stroke-width:2;stroke-linecap:round;stroke-linejoin:round;}
</style>
<circle class="st0" cx="12" cy="12" r="3"/>
<path class="st0" d="M19.4,15c-0.3,0.6-0.1,1.3,0.3,1.8l0.1,0.1c0.8,0.8,0.8,2,0,2.8c0,0,0,0,0,0c-0.8,0.8-2,0.8-2.8,0c0,0,0,0,0,0
	l-0.1-0.1c-0.5-0.5-1.2-0.6-1.8-0.3c-0.6,0.3-1,0.9-1,1.5V21c0,1.1-0.9,2-2,2s-2-0.9-2-2v-0.1c0-0.7-0.4-1.3-1.1-1.5
	c-0.6-0.3-1.3-0.1-1.8,0.3l-0.1,0.1c-0.8,0.8-2,0.8-2.8,0c0,0,0,0,0,0c-0.8-0.8-0.8-2,0-2.8c0,0,0,0,0,0l0.1-0.1
	c0.5-0.5,0.6-1.2,0.3-1.8c-0.3-0.6-0.9-1-1.5-1H3c-1.1,0-2-0.9-2-2s0.9-2,2-2h0.1c0.7,0,1.3-0.4,1.5-1.1c0.3-0.6,0.1-1.3-0.3-1.8
	L4.2,7.1c-0.8-0.8-0.8-2,0-2.8c0,0,0,0,0,0c0.8-0.8,2-0.8,2.8,0c0,0,0,0,0,0l0.1,0.1C7.6,4.8,8.3,5,8.9,4.7H9c0.6-0.3,1-0.9,1-1.5V3
	c0-1.1,0.9-2,2-2s2,0.9,2,2v0.1c0,0.7,0.4,1.3,1,1.5c0.6,0.3,1.3,0.1,1.8-0.3l0.1-0.1c0.8-0.8,2-0.8,2.8,0c0,0,0,0,0,0
	c0.8,0.8,0.8,2,0,2.8c0,0,0,0,0,0l-0.1,0.1c-0.5,0.5-0.6,1.2-0.3,1.8V9c0.3,0.6,0.9,1,1.5,1H21c1.1,0,2,0.9,2,2s-0.9,2-2,2h-0.1
	C20.3,14,19.7,14.4,19.4,15z"/>
</svg>
